<?xml version="1.0" encoding="utf-8"?>
<!-- Generator: Adobe Illustrator 16.0.0, SVG Export Plug-In . SVG Version: 6.00 Build 0)  -->
<!DOCTYPE svg PUBLIC "-//W3C//DTD SVG 1.1//EN" "http://www.w3.org/Graphics/SVG/1.1/DTD/svg11.dtd">
<svg version="1.1" id="Layer_1" xmlns="http://www.w3.org/2000/svg" xmlns:xlink="http://www.w3.org/1999/xlink" x="0px" y="0px"
	 width="256.901px" height="71px" viewBox="0 0 256.901 71" enable-background="new 0 0 256.901 71" xml:space="preserve">
<linearGradient id="SVGID_1_" gradientUnits="userSpaceOnUse" x1="327.0332" y1="-147.3408" x2="376.8398" y2="-147.3408" gradientTransform="matrix(1 0 0 -1 -312.9902 -111.5996)">
	<stop  offset="0" style="stop-color:#74009A"/>
	<stop  offset="0.2409" style="stop-color:#9100A2"/>
	<stop  offset="0.7607" style="stop-color:#DB00B7"/>
	<stop  offset="1" style="stop-color:#FF00C1"/>
</linearGradient>
<path fill="url(#SVGID_1_)" d="M35.276,65.051c3.479-1.681,6.638-3.697,8.926-6.892c5.833-8.146,3.657-19.017-5.135-23.818
	c-3.69-2.016-7.882-3.101-11.829-4.651c-2.947-1.159-5.967-2.188-8.774-3.628c-3.429-1.76-4.837-4.752-4.316-8.094
	c0.522-3.337,3.139-6.033,6.663-6.858c5.782-1.354,11.198,0.819,14.649,6.258c1.799,2.841,3.124,5.983,4.633,9.005
	c0.527,1.052,2.897,1.76,3.787,1.009c0.247-0.21,0.33-0.725,0.325-1.099c-0.067-5.639-0.174-11.283-0.236-16.925
	c-0.01-0.917-0.393-1.235-1.277-1.316c-1.512-0.135-2.864,0.008-3.813,1.383c-0.64,0.926-1.359,0.858-2.372,0.434
	c-2.573-1.075-5.226-1.962-7.944-2.961c11.21-1.711,20.858,1.226,28.137,9.957c7.831,9.396,9.236,20.162,4.183,31.247
	C55.971,58.881,47.025,64.289,35.276,65.051z"/>
<linearGradient id="SVGID_2_" gradientUnits="userSpaceOnUse" x1="4.8813" y1="48.8882" x2="33.9307" y2="48.8882">
	<stop  offset="0" style="stop-color:#C81075"/>
	<stop  offset="0.0817" style="stop-color:#C31075"/>
	<stop  offset="0.1814" style="stop-color:#B41076"/>
	<stop  offset="0.2905" style="stop-color:#9B1078"/>
	<stop  offset="0.4063" style="stop-color:#79117A"/>
	<stop  offset="0.5263" style="stop-color:#4D117D"/>
	<stop  offset="0.5526" style="stop-color:#42117E"/>
</linearGradient>
<path fill="url(#SVGID_2_)" d="M4.906,35.17c1.103,0.894,1.904,1.827,2.918,2.31c3.271,1.556,6.582,3.043,9.952,4.366
	c3.236,1.274,6.623,2.169,9.833,3.497c2.74,1.131,5.187,2.807,6.023,5.94c1.346,5.044-1.986,9.968-7.321,11.089
	c-2.558,0.539-4.77,0.161-7.005-1.256c-8.651-5.48-13.454-13.269-14.392-23.451C4.846,36.923,4.906,36.168,4.906,35.17z"/>
<g>
	<path d="M72.956,46.562h3.003c0,3.97,3.163,6.406,7.65,6.406c4.07,0,7.153-2.227,7.153-5.663c0-3.831-3.692-4.667-7.695-5.587
		c-4.55-1.054-9.527-2.222-9.527-7.956c0-4.961,3.86-8.044,9.829-8.044c5.924,0,9.611,3.339,9.611,8.54h-2.915
		c0-3.554-2.818-5.713-6.755-5.713c-3.982,0-6.826,1.961-6.826,5.1c0,3.621,3.63,4.457,7.578,5.364
		c4.634,1.096,9.733,2.293,9.733,8.267c0,5.377-4.365,8.578-10.157,8.578C77.253,55.854,72.956,52.237,72.956,46.562z"/>
	<path d="M110.082,43.801v11.687h-3.032V43.807L96.136,26.083h3.234l9.214,14.934l9.274-14.934h3.234L110.082,43.801z"/>
	<path d="M149.506,26.083v29.405h-2.491l-17.689-24.235v24.235h-2.886V26.083h2.667l17.513,24.036V26.083H149.506z"/>
	<path d="M155.792,40.798c0-8.67,6.436-15.194,15.315-15.194c8.881,0,15.316,6.511,15.316,15.194c0,8.67-6.436,15.168-15.316,15.168
		C162.228,55.967,155.792,49.456,155.792,40.798z M183.42,40.798c0-7.036-5.196-12.308-12.313-12.308s-12.313,5.314-12.313,12.308
		c0,6.981,5.196,12.283,12.313,12.283S183.42,47.822,183.42,40.798z"/>
	<linearGradient id="SVGID_3_" gradientUnits="userSpaceOnUse" x1="191.9023" y1="40.7856" x2="213.5977" y2="40.7856">
		<stop  offset="0" style="stop-color:#74009A"/>
		<stop  offset="0.2409" style="stop-color:#9100A2"/>
		<stop  offset="0.7607" style="stop-color:#DB00B7"/>
		<stop  offset="1" style="stop-color:#FF00C1"/>
	</linearGradient>
	<path fill="url(#SVGID_3_)" d="M213.598,36.195c0,5.797-4.476,10.113-10.38,10.113h-4.953v9.18h-6.362V26.083h11.315
		C209.114,26.083,213.598,30.391,213.598,36.195z M207.151,36.195c0-2.444-1.688-4.219-4.212-4.219h-4.675v8.439h4.675
		C205.463,40.415,207.151,38.64,207.151,36.195z"/>
	<linearGradient id="SVGID_4_" gradientUnits="userSpaceOnUse" x1="218.0264" y1="40.7856" x2="224.3887" y2="40.7856">
		<stop  offset="0" style="stop-color:#74009A"/>
		<stop  offset="0.2409" style="stop-color:#9100A2"/>
		<stop  offset="0.7607" style="stop-color:#DB00B7"/>
		<stop  offset="1" style="stop-color:#FF00C1"/>
	</linearGradient>
	<path fill="url(#SVGID_4_)" d="M218.026,26.083h6.362v29.405h-6.362V26.083z"/>
	<linearGradient id="SVGID_5_" gradientUnits="userSpaceOnUse" x1="227.9297" y1="40.7856" x2="253.9014" y2="40.7856">
		<stop  offset="0" style="stop-color:#74009A"/>
		<stop  offset="0.2409" style="stop-color:#9100A2"/>
		<stop  offset="0.7607" style="stop-color:#DB00B7"/>
		<stop  offset="1" style="stop-color:#FF00C1"/>
	</linearGradient>
	<path fill="url(#SVGID_5_)" d="M246.761,55.488l-5.803-10.102l-5.879,10.102h-7.149l9.144-15.434l-8.559-13.971h7.141l5.252,9.067
		l5.296-9.067h6.97l-8.443,14.206l9.172,15.199H246.761z"/>
</g>
</svg>
