<?xml version="1.0" encoding="utf-8"?>
<!-- Generator: Adobe Illustrator 16.0.0, SVG Export Plug-In . SVG Version: 6.00 Build 0)  -->
<!DOCTYPE svg PUBLIC "-//W3C//DTD SVG 1.1//EN" "http://www.w3.org/Graphics/SVG/1.1/DTD/svg11.dtd">
<svg version="1.1" id="Layer_1" xmlns="http://www.w3.org/2000/svg" xmlns:xlink="http://www.w3.org/1999/xlink" x="0px" y="0px"
	 width="245.5px" height="68px" viewBox="0 7 245.5 68" enable-background="new 0 7 245.5 68" xml:space="preserve">
<linearGradient id="SVGID_1_" gradientUnits="userSpaceOnUse" x1="801.9512" y1="1358.6465" x2="846.5693" y2="1358.6465" gradientTransform="matrix(1 0 0 1 -790.7891 -1317.5703)">
	<stop  offset="0" style="stop-color:#74009A"/>
	<stop  offset="0.2409" style="stop-color:#9100A2"/>
	<stop  offset="0.7607" style="stop-color:#DB00B7"/>
	<stop  offset="1" style="stop-color:#FF00C1"/>
</linearGradient>
<path fill="url(#SVGID_1_)" d="M30.182,67.332c3.116-1.506,5.946-3.313,7.996-6.174c5.225-7.297,3.276-17.034-4.6-21.335
	c-3.306-1.806-7.06-2.777-10.596-4.167c-2.64-1.038-5.345-1.959-7.859-3.25c-3.071-1.576-4.333-4.257-3.867-7.25
	c0.468-2.989,2.812-5.404,5.969-6.144c5.18-1.213,10.031,0.733,13.123,5.605c1.612,2.545,2.799,5.36,4.15,8.067
	c0.473,0.942,2.596,1.576,3.392,0.903c0.221-0.188,0.296-0.649,0.292-0.984c-0.061-5.051-0.156-10.107-0.211-15.161
	c-0.009-0.822-0.352-1.106-1.144-1.179c-1.354-0.121-2.565,0.007-3.416,1.239c-0.573,0.83-1.217,0.769-2.125,0.389
	c-2.305-0.963-4.681-1.758-7.117-2.653c10.042-1.534,18.685,1.098,25.206,8.919c7.015,8.416,8.273,18.061,3.747,27.991
	C48.719,61.807,40.707,66.65,30.182,67.332z"/>
<linearGradient id="SVGID_2_" gradientUnits="userSpaceOnUse" x1="480.7539" y1="-1156.8232" x2="506.7773" y2="-1156.8232" gradientTransform="matrix(1 0 0 -1 -477.8008 -1103.9707)">
	<stop  offset="0" style="stop-color:#C81075"/>
	<stop  offset="0.0817" style="stop-color:#C31075"/>
	<stop  offset="0.1814" style="stop-color:#B41076"/>
	<stop  offset="0.2905" style="stop-color:#9B1078"/>
	<stop  offset="0.4063" style="stop-color:#79117A"/>
	<stop  offset="0.5263" style="stop-color:#4D117D"/>
	<stop  offset="0.5526" style="stop-color:#42117E"/>
</linearGradient>
<path fill="url(#SVGID_2_)" d="M2.976,40.564c0.988,0.802,1.706,1.638,2.614,2.067c2.93,1.396,5.895,2.728,8.914,3.911
	c2.899,1.145,5.933,1.941,8.809,3.133c2.454,1.016,4.646,2.516,5.396,5.321c1.206,4.521-1.779,8.929-6.559,9.935
	c-2.291,0.48-4.272,0.146-6.275-1.123C8.125,58.898,3.823,51.922,2.983,42.8C2.921,42.136,2.976,41.459,2.976,40.564z"/>
<g>
	<path fill="#FFFFFF" d="M62.956,51.896h3.003c0,3.971,3.163,6.404,7.65,6.404c4.07,0,7.153-2.227,7.153-5.66
		c0-3.832-3.692-4.668-7.695-5.59c-4.55-1.054-9.527-2.222-9.527-7.953c0-4.964,3.86-8.047,9.829-8.047
		c5.924,0,9.611,3.342,9.611,8.54h-2.915c0-3.554-2.818-5.713-6.755-5.713c-3.982,0-6.826,1.961-6.826,5.103
		c0,3.621,3.63,4.457,7.578,5.361c4.634,1.098,9.733,2.293,9.733,8.27c0,5.375-4.365,8.578-10.157,8.578
		C67.253,61.189,62.956,57.572,62.956,51.896z"/>
	<path fill="#FFFFFF" d="M100.082,49.137v11.688H97.05V49.143L86.136,31.419h3.234l9.214,14.935l9.274-14.935h3.234L100.082,49.137z
		"/>
	<path fill="#FFFFFF" d="M139.506,31.419v29.405h-2.49l-17.688-24.235v24.235h-2.886V31.419h2.667l17.513,24.036V31.419H139.506z"/>
	<path fill="#FFFFFF" d="M145.792,46.134c0-8.67,6.437-15.194,15.315-15.194c8.881,0,15.313,6.511,15.313,15.194
		c0,8.671-6.438,15.168-15.313,15.168C152.229,61.303,145.792,54.792,145.792,46.134z M173.42,46.134
		c0-7.036-5.195-12.308-12.313-12.308c-7.119,0-12.313,5.314-12.313,12.308c0,6.981,5.196,12.283,12.313,12.283
		S173.42,53.158,173.42,46.134z"/>
	<path fill="#FFFFFF" d="M193.854,37.498c6.832,0,11.885,5.109,11.885,11.984c0,6.865-5.053,12.018-11.885,12.018
		c-2.349,0-4.479-0.693-6.236-1.91V69h-6.135V38.141h4.058l1.047,2.063C188.512,38.496,191.025,37.499,193.854,37.498
		L193.854,37.498z M199.529,49.48c0-3.563-2.611-6.217-6.176-6.217c-3.563,0-6.185,2.66-6.185,6.217
		c0,3.556,2.619,6.218,6.185,6.218C196.918,55.698,199.529,53.044,199.529,49.48z"/>
	<path fill="#FFFFFF" d="M210.126,38.141h6.133v22.686h-6.133V38.141z M210.139,29.414h6.108v5.702h-6.108V29.414z"/>
	<path fill="#FFFFFF" d="M235.096,60.824l-4.488-7.502L226,60.824h-6.752l7.712-11.648l-7.212-11.035h6.938l3.936,6.553l4.206-6.553
		h6.752l-7.324,10.721l7.781,11.965L235.096,60.824L235.096,60.824z"/>
</g>
</svg>
